<mxfile host="Electron" modified="2023-12-13T05:49:07.025Z" agent="Mozilla/5.0 (Macintosh; Intel Mac OS X 10_15_7) AppleWebKit/537.36 (KHTML, like Gecko) draw.io/22.1.2 Chrome/114.0.5735.289 Electron/25.9.4 Safari/537.36" etag="fZeI981Af-NC_uGxp-B6" version="22.1.2" type="device">
  <diagram name="第 1 页" id="53wYVayZq2uOFgaiEOdf">
    <mxGraphModel dx="2768" dy="1896" grid="1" gridSize="10" guides="1" tooltips="1" connect="1" arrows="1" fold="1" page="1" pageScale="1" pageWidth="827" pageHeight="1169" math="0" shadow="0">
      <root>
        <mxCell id="0" />
        <mxCell id="1" parent="0" />
        <mxCell id="0k14JV3WfLw4tkSHMa_p-1" style="edgeStyle=none;rounded=0;orthogonalLoop=1;jettySize=auto;html=1;exitX=0;exitY=1;exitDx=0;exitDy=0;entryX=1;entryY=0;entryDx=0;entryDy=0;labelBackgroundColor=none;strokeColor=#788AA3;fontColor=default;strokeWidth=2;" edge="1" parent="1" source="0k14JV3WfLw4tkSHMa_p-3" target="0k14JV3WfLw4tkSHMa_p-6">
          <mxGeometry relative="1" as="geometry" />
        </mxCell>
        <mxCell id="0k14JV3WfLw4tkSHMa_p-2" style="edgeStyle=none;rounded=0;orthogonalLoop=1;jettySize=auto;html=1;exitX=1;exitY=1;exitDx=0;exitDy=0;entryX=0;entryY=0;entryDx=0;entryDy=0;labelBackgroundColor=none;strokeColor=#788AA3;fontColor=default;strokeWidth=2;" edge="1" parent="1" source="0k14JV3WfLw4tkSHMa_p-3" target="0k14JV3WfLw4tkSHMa_p-8">
          <mxGeometry relative="1" as="geometry" />
        </mxCell>
        <mxCell id="0k14JV3WfLw4tkSHMa_p-3" value="A" style="ellipse;whiteSpace=wrap;html=1;aspect=fixed;fontFamily=Monaco;fontSize=32;labelBackgroundColor=none;fillColor=#B2C9AB;strokeColor=#788AA3;fontColor=#46495D;strokeWidth=2;" vertex="1" parent="1">
          <mxGeometry x="-1332" y="-1020" width="80" height="80" as="geometry" />
        </mxCell>
        <mxCell id="0k14JV3WfLw4tkSHMa_p-4" style="edgeStyle=none;rounded=0;orthogonalLoop=1;jettySize=auto;html=1;exitX=0;exitY=1;exitDx=0;exitDy=0;entryX=1;entryY=0;entryDx=0;entryDy=0;labelBackgroundColor=none;strokeColor=#788AA3;fontColor=default;strokeWidth=2;" edge="1" parent="1" source="0k14JV3WfLw4tkSHMa_p-6" target="0k14JV3WfLw4tkSHMa_p-13">
          <mxGeometry relative="1" as="geometry" />
        </mxCell>
        <mxCell id="0k14JV3WfLw4tkSHMa_p-5" style="edgeStyle=none;rounded=0;orthogonalLoop=1;jettySize=auto;html=1;exitX=1;exitY=1;exitDx=0;exitDy=0;entryX=0;entryY=0;entryDx=0;entryDy=0;labelBackgroundColor=none;strokeColor=#788AA3;fontColor=default;strokeWidth=2;" edge="1" parent="1" source="0k14JV3WfLw4tkSHMa_p-6" target="0k14JV3WfLw4tkSHMa_p-10">
          <mxGeometry relative="1" as="geometry" />
        </mxCell>
        <mxCell id="0k14JV3WfLw4tkSHMa_p-6" value="B" style="ellipse;whiteSpace=wrap;html=1;aspect=fixed;fontFamily=Monaco;fontSize=32;labelBackgroundColor=none;fillColor=#B2C9AB;strokeColor=#788AA3;fontColor=#46495D;strokeWidth=2;" vertex="1" parent="1">
          <mxGeometry x="-1425" y="-895" width="80" height="80" as="geometry" />
        </mxCell>
        <mxCell id="0k14JV3WfLw4tkSHMa_p-7" style="edgeStyle=none;rounded=0;orthogonalLoop=1;jettySize=auto;html=1;exitX=0.5;exitY=1;exitDx=0;exitDy=0;labelBackgroundColor=none;strokeColor=#788AA3;fontColor=default;strokeWidth=2;entryX=1;entryY=0;entryDx=0;entryDy=0;" edge="1" parent="1" source="0k14JV3WfLw4tkSHMa_p-8" target="0k14JV3WfLw4tkSHMa_p-15">
          <mxGeometry relative="1" as="geometry" />
        </mxCell>
        <mxCell id="0k14JV3WfLw4tkSHMa_p-8" value="C" style="ellipse;whiteSpace=wrap;html=1;aspect=fixed;fontFamily=Monaco;fontSize=32;labelBackgroundColor=none;fillColor=#B2C9AB;strokeColor=#788AA3;fontColor=#46495D;strokeWidth=2;" vertex="1" parent="1">
          <mxGeometry x="-1240" y="-890" width="80" height="80" as="geometry" />
        </mxCell>
        <mxCell id="0k14JV3WfLw4tkSHMa_p-9" style="edgeStyle=none;rounded=0;orthogonalLoop=1;jettySize=auto;html=1;exitX=0.5;exitY=1;exitDx=0;exitDy=0;entryX=0.5;entryY=0;entryDx=0;entryDy=0;labelBackgroundColor=none;strokeColor=#788AA3;fontColor=default;strokeWidth=2;" edge="1" parent="1" source="0k14JV3WfLw4tkSHMa_p-10" target="0k14JV3WfLw4tkSHMa_p-15">
          <mxGeometry relative="1" as="geometry" />
        </mxCell>
        <mxCell id="0k14JV3WfLw4tkSHMa_p-10" value="F" style="ellipse;whiteSpace=wrap;html=1;aspect=fixed;fontFamily=Monaco;fontSize=32;labelBackgroundColor=none;fillColor=#B2C9AB;strokeColor=#788AA3;fontColor=#46495D;strokeWidth=2;" vertex="1" parent="1">
          <mxGeometry x="-1332" y="-760" width="80" height="80" as="geometry" />
        </mxCell>
        <mxCell id="0k14JV3WfLw4tkSHMa_p-11" style="edgeStyle=none;rounded=0;orthogonalLoop=1;jettySize=auto;html=1;exitX=1;exitY=1;exitDx=0;exitDy=0;entryX=0;entryY=0;entryDx=0;entryDy=0;labelBackgroundColor=none;strokeColor=#788AA3;fontColor=default;strokeWidth=2;" edge="1" parent="1" source="0k14JV3WfLw4tkSHMa_p-13" target="0k14JV3WfLw4tkSHMa_p-15">
          <mxGeometry relative="1" as="geometry" />
        </mxCell>
        <mxCell id="0k14JV3WfLw4tkSHMa_p-12" style="edgeStyle=none;rounded=0;orthogonalLoop=1;jettySize=auto;html=1;exitX=0.5;exitY=1;exitDx=0;exitDy=0;entryX=0.5;entryY=0;entryDx=0;entryDy=0;labelBackgroundColor=none;strokeColor=#788AA3;fontColor=default;strokeWidth=2;" edge="1" parent="1" source="0k14JV3WfLw4tkSHMa_p-13" target="0k14JV3WfLw4tkSHMa_p-17">
          <mxGeometry relative="1" as="geometry" />
        </mxCell>
        <mxCell id="0k14JV3WfLw4tkSHMa_p-13" value="E" style="ellipse;whiteSpace=wrap;html=1;aspect=fixed;fontFamily=Monaco;fontSize=32;labelBackgroundColor=none;fillColor=#B2C9AB;strokeColor=#788AA3;fontColor=#46495D;strokeWidth=2;" vertex="1" parent="1">
          <mxGeometry x="-1517" y="-770" width="80" height="80" as="geometry" />
        </mxCell>
        <mxCell id="0k14JV3WfLw4tkSHMa_p-14" style="edgeStyle=none;rounded=0;orthogonalLoop=1;jettySize=auto;html=1;exitX=0.5;exitY=1;exitDx=0;exitDy=0;entryX=0.5;entryY=0;entryDx=0;entryDy=0;labelBackgroundColor=none;strokeColor=#788AA3;fontColor=default;strokeWidth=2;" edge="1" parent="1" source="0k14JV3WfLw4tkSHMa_p-15" target="0k14JV3WfLw4tkSHMa_p-18">
          <mxGeometry relative="1" as="geometry" />
        </mxCell>
        <mxCell id="0k14JV3WfLw4tkSHMa_p-15" value="G" style="ellipse;whiteSpace=wrap;html=1;aspect=fixed;fontFamily=Monaco;fontSize=32;labelBackgroundColor=none;fillColor=#fff2cc;strokeColor=#d6b656;strokeWidth=2;" vertex="1" parent="1">
          <mxGeometry x="-1332" y="-630" width="80" height="80" as="geometry" />
        </mxCell>
        <mxCell id="0k14JV3WfLw4tkSHMa_p-16" style="edgeStyle=none;rounded=0;orthogonalLoop=1;jettySize=auto;html=1;exitX=1;exitY=1;exitDx=0;exitDy=0;entryX=0;entryY=0;entryDx=0;entryDy=0;labelBackgroundColor=none;strokeColor=#788AA3;fontColor=default;strokeWidth=2;" edge="1" parent="1" source="0k14JV3WfLw4tkSHMa_p-17" target="0k14JV3WfLw4tkSHMa_p-18">
          <mxGeometry relative="1" as="geometry" />
        </mxCell>
        <mxCell id="0k14JV3WfLw4tkSHMa_p-17" value="H" style="ellipse;whiteSpace=wrap;html=1;aspect=fixed;fontFamily=Monaco;fontSize=32;labelBackgroundColor=none;fillColor=#B2C9AB;strokeColor=#788AA3;fontColor=#46495D;strokeWidth=2;" vertex="1" parent="1">
          <mxGeometry x="-1517.5" y="-630" width="80" height="80" as="geometry" />
        </mxCell>
        <mxCell id="0k14JV3WfLw4tkSHMa_p-18" value="I" style="ellipse;whiteSpace=wrap;html=1;aspect=fixed;fontFamily=Monaco;fontSize=32;labelBackgroundColor=none;fillColor=#B2C9AB;strokeColor=#788AA3;fontColor=#46495D;strokeWidth=2;" vertex="1" parent="1">
          <mxGeometry x="-1332.5" y="-500" width="80" height="80" as="geometry" />
        </mxCell>
      </root>
    </mxGraphModel>
  </diagram>
</mxfile>
